<svg xmlns="http://www.w3.org/2000/svg"  width="118.5199999999999" viewBox="0.6000000238418579 -38.099998474121094 175.489990234375 47.099998474121094" height="46.14810256410256" data-palette-color="#000000">
    <path d="M20.45 0L11.15 0 11.15-27.8 0.6-27.8 0.6-35.25 31-35.25 31-27.8 20.45-27.8 20.45 0ZM42.55 0.4Q38.5 0.4 35.42-1.18 32.35-2.75 30.67-5.65 29-8.55 29-12.45L29-12.45Q29-16.35 30.67-19.23 32.35-22.1 35.4-23.65 38.45-25.2 42.55-25.2L42.55-25.2Q46.65-25.2 49.7-23.65 52.75-22.1 54.42-19.23 56.1-16.35 56.1-12.45L56.1-12.45Q56.1-8.55 54.42-5.65 52.75-2.75 49.7-1.18 46.65 0.4 42.55 0.4L42.55 0.4ZM42.55-6.25Q47.3-6.25 47.3-12.45L47.3-12.45Q47.3-18.65 42.55-18.65L42.55-18.65Q37.8-18.65 37.8-12.45L37.8-12.45Q37.8-6.25 42.55-6.25L42.55-6.25ZM53.15-38.1L45.25-27.8 39.85-27.8 44.75-38.1 53.15-38.1ZM76.45-25.2Q79.59-25.2 82.07-23.58 84.55-21.95 85.92-19 87.3-16.05 87.3-12.25L87.3-12.25Q87.3-8.45 85.92-5.58 84.55-2.7 82.09-1.15 79.65 0.4 76.45 0.4L76.45 0.4Q74.09 0.4 72.12-0.55 70.15-1.5 69.05-3.1L69.05-3.1 69.05 9 60.15 9 60.15-24.6 68.9-24.6 68.9-21.45Q69.95-23.2 71.97-24.2 74-25.2 76.45-25.2L76.45-25.2ZM73.75-6.25Q76.05-6.25 77.27-7.8 78.5-9.35 78.5-12.25L78.5-12.25Q78.5-15.3 77.25-16.93 76-18.55 73.7-18.55L73.7-18.55Q71.4-18.55 70.15-16.95 68.9-15.35 68.9-12.35L68.9-12.35Q68.9-9.4 70.15-7.83 71.4-6.25 73.75-6.25L73.75-6.25ZM109.24 0L99.94 0 99.94-27.8 89.39-27.8 89.39-35.25 119.79-35.25 119.79-27.8 109.24-27.8 109.24 0ZM131.34 0.4Q127.29 0.4 124.22-1.18 121.14-2.75 119.47-5.65 117.79-8.55 117.79-12.45L117.79-12.45Q117.79-16.35 119.47-19.23 121.14-22.1 124.19-23.65 127.24-25.2 131.34-25.2L131.34-25.2Q135.44-25.2 138.49-23.65 141.54-22.1 143.22-19.23 144.89-16.35 144.89-12.45L144.89-12.45Q144.89-8.55 143.22-5.65 141.54-2.75 138.49-1.18 135.44 0.4 131.34 0.4L131.34 0.4ZM131.34-6.25Q136.09-6.25 136.09-12.45L136.09-12.45Q136.09-18.65 131.34-18.65L131.34-18.65Q126.59-18.65 126.59-12.45L126.59-12.45Q126.59-6.25 131.34-6.25L131.34-6.25ZM141.94-38.1L134.04-27.8 128.64-27.8 133.54-38.1 141.94-38.1ZM165.24-25.2Q168.39-25.2 170.86-23.58 173.34-21.95 174.71-19 176.09-16.05 176.09-12.25L176.09-12.25Q176.09-8.45 174.71-5.58 173.34-2.7 170.89-1.15 168.44 0.4 165.24 0.4L165.24 0.4Q162.89 0.4 160.91-0.55 158.94-1.5 157.84-3.1L157.84-3.1 157.84 9 148.94 9 148.94-24.6 157.69-24.6 157.69-21.45Q158.74-23.2 160.76-24.2 162.79-25.2 165.24-25.2L165.24-25.2ZM162.54-6.25Q164.84-6.25 166.06-7.8 167.29-9.35 167.29-12.25L167.29-12.25Q167.29-15.3 166.04-16.93 164.79-18.55 162.49-18.55L162.49-18.55Q160.19-18.55 158.94-16.95 157.69-15.35 157.69-12.35L157.69-12.35Q157.69-9.4 158.94-7.83 160.19-6.25 162.54-6.25L162.54-6.25Z" opacity="1" transform="matrix(1,0,0,1,0,0)" fill="#000000" class="wordmark-text-0" data-fill-palette-color="primary" id="text-0">
    </path>
</svg>